<?xml version="1.0" standalone="no"?>
<!DOCTYPE svg PUBLIC "-//W3C//DTD SVG 20010904//EN"
 "http://www.w3.org/TR/2001/REC-SVG-20010904/DTD/svg10.dtd">
<svg version="1.0" xmlns="http://www.w3.org/2000/svg"
 width="368.000000pt" height="650.000000pt" viewBox="0 0 368.000000 650.000000"
 preserveAspectRatio="xMidYMid meet">

<g transform="translate(0.000000,650.000000) scale(0.100000,-0.100000)"
fill="black" stroke="none">
<path d="M10 6075 l0 -424 133 -3 132 -3 3 -847 2 -848 145 0 145 0 0 -145 0
-145 135 0 135 0 0 -140 0 -140 140 0 140 0 0 -275 0 -275 -140 0 -140 0 0
-145 0 -145 -135 0 -135 0 0 -145 0 -145 -145 0 -145 0 0 -695 0 -695 -135 0
-135 0 0 -430 0 -430 1830 0 1830 0 0 430 0 430 -130 0 -130 0 0 695 0 694
-147 3 -148 3 -3 143 -3 142 -129 0 -130 0 0 145 0 145 -145 0 -145 0 0 275 0
275 145 0 145 0 0 140 0 139 131 3 131 3 1 140 2 140 148 3 147 3 0 849 0 850
130 0 130 0 0 425 0 425 -1830 0 -1830 0 0 -425z m3095 0 l0 -150 -1267 -3
-1268 -2 0 155 0 155 1268 -2 1267 -3 0 -150z m-5 -1130 l0 -705 -145 0 -145
0 0 -145 0 -145 -135 0 -135 0 0 -146 0 -145 -140 3 -140 3 0 -137 0 -138
-130 0 -130 0 0 150 0 150 -155 0 -155 0 0 -150 0 -150 150 0 150 0 2 -287 3
-288 133 -3 132 -3 0 -134 0 -135 140 0 139 0 3 -142 3 -143 133 -3 132 -3 0
-139 0 -140 145 0 145 0 0 -555 0 -555 -145 0 -145 0 0 140 0 139 -142 3 -143
3 -3 143 -3 142 -134 0 -135 0 0 145 0 145 -417 -2 -418 -3 -3 -143 -3 -142
-134 0 -134 0 -3 -142 -3 -143 -142 -3 -143 -3 0 -139 0 -140 -135 0 -135 0 2
553 3 552 148 3 147 3 0 139 0 140 130 0 130 0 0 145 0 145 145 0 145 0 0 135
0 135 130 0 130 0 0 290 0 290 -130 0 -130 0 0 135 0 134 -142 3 -143 3 -3
143 -3 142 -129 0 -130 0 0 145 0 145 -150 0 -150 0 0 705 0 705 1260 0 1260
0 0 -705z m8 -4543 l3 -152 -1268 2 -1268 3 -3 140 c-1 76 0 145 2 152 4 11
238 13 1268 11 l1263 -3 3 -153z"/>
<path d="M1140 4655 l0 -155 140 0 139 0 3 -142 3 -143 133 -3 132 -3 0 -139
0 -140 156 0 155 0 -3 140 -3 140 133 0 132 0 0 145 0 145 140 0 140 0 0 155
0 155 -700 0 -700 0 0 -155z"/>
</g>
</svg>
